<mxfile host="app.diagrams.net" agent="Mozilla/5.0 (Windows NT 10.0; Win64; x64) AppleWebKit/537.36 (KHTML, like Gecko) Chrome/134.0.0.0 Safari/537.36" version="26.1.3">
  <diagram name="Modelo-ER" id="4nw62lO1h6hBah5cUrS4">
    <mxGraphModel dx="1434" dy="738" grid="1" gridSize="10" guides="1" tooltips="1" connect="1" arrows="1" fold="1" page="1" pageScale="1" pageWidth="827" pageHeight="1169" math="0" shadow="0">
      <root>
        <mxCell id="0" />
        <mxCell id="1" parent="0" />
        <mxCell id="E68iJSFj84GTbNLbcEv8-1" value="EVENTO" style="whiteSpace=wrap;html=1;align=center;" parent="1" vertex="1">
          <mxGeometry x="364" y="920" width="100" height="40" as="geometry" />
        </mxCell>
        <mxCell id="E68iJSFj84GTbNLbcEv8-2" value="COMIC" style="whiteSpace=wrap;html=1;align=center;" parent="1" vertex="1">
          <mxGeometry x="610" y="740" width="100" height="40" as="geometry" />
        </mxCell>
        <mxCell id="E68iJSFj84GTbNLbcEv8-3" value="SERIE" style="whiteSpace=wrap;html=1;align=center;" parent="1" vertex="1">
          <mxGeometry x="500" y="410" width="100" height="40" as="geometry" />
        </mxCell>
        <mxCell id="E68iJSFj84GTbNLbcEv8-4" value="PERSONAJE" style="whiteSpace=wrap;html=1;align=center;" parent="1" vertex="1">
          <mxGeometry x="100" y="740" width="100" height="40" as="geometry" />
        </mxCell>
        <mxCell id="E68iJSFj84GTbNLbcEv8-5" value="USUARIO" style="whiteSpace=wrap;html=1;align=center;" parent="1" vertex="1">
          <mxGeometry x="240" y="410" width="100" height="40" as="geometry" />
        </mxCell>
        <mxCell id="E68iJSFj84GTbNLbcEv8-9" value="IDIOMA" style="whiteSpace=wrap;html=1;align=center;" parent="1" vertex="1">
          <mxGeometry x="359" y="210" width="100" height="40" as="geometry" />
        </mxCell>
        <mxCell id="GF9N1NEK_EVH8XBZDfcY-1" value="CREADOR" style="whiteSpace=wrap;html=1;align=center;" parent="1" vertex="1">
          <mxGeometry x="610" y="920" width="100" height="40" as="geometry" />
        </mxCell>
        <mxCell id="GF9N1NEK_EVH8XBZDfcY-2" value="HISTORIAL_BUSQUEDA" style="whiteSpace=wrap;html=1;align=center;" parent="1" vertex="1">
          <mxGeometry x="65" y="210" width="160" height="40" as="geometry" />
        </mxCell>
        <mxCell id="GF9N1NEK_EVH8XBZDfcY-3" value="FAVORITOS" style="whiteSpace=wrap;html=1;align=center;" parent="1" vertex="1">
          <mxGeometry x="370" y="590" width="100" height="40" as="geometry" />
        </mxCell>
        <mxCell id="bm0z0x6JTXVxcFclUV1G-10" value="&lt;span style=&quot;font-weight: normal;&quot;&gt;guarda&lt;/span&gt;" style="shape=rhombus;perimeter=rhombusPerimeter;whiteSpace=wrap;html=1;align=center;fontStyle=1" vertex="1" parent="1">
          <mxGeometry x="280" y="510" width="90" height="40" as="geometry" />
        </mxCell>
        <mxCell id="bm0z0x6JTXVxcFclUV1G-11" value="" style="endArrow=none;html=1;rounded=0;exitX=0.5;exitY=1;exitDx=0;exitDy=0;entryX=0;entryY=0;entryDx=0;entryDy=0;" edge="1" parent="1" source="bm0z0x6JTXVxcFclUV1G-10" target="GF9N1NEK_EVH8XBZDfcY-3">
          <mxGeometry relative="1" as="geometry">
            <mxPoint x="280" y="600" as="sourcePoint" />
            <mxPoint x="440" y="600" as="targetPoint" />
          </mxGeometry>
        </mxCell>
        <mxCell id="bm0z0x6JTXVxcFclUV1G-12" value="" style="endArrow=none;html=1;rounded=0;exitX=0.5;exitY=1;exitDx=0;exitDy=0;entryX=0.5;entryY=0;entryDx=0;entryDy=0;" edge="1" parent="1" source="E68iJSFj84GTbNLbcEv8-5" target="bm0z0x6JTXVxcFclUV1G-10">
          <mxGeometry relative="1" as="geometry">
            <mxPoint x="345" y="550" as="sourcePoint" />
            <mxPoint x="380" y="620" as="targetPoint" />
          </mxGeometry>
        </mxCell>
        <mxCell id="bm0z0x6JTXVxcFclUV1G-13" value="marca" style="shape=rhombus;perimeter=rhombusPerimeter;whiteSpace=wrap;html=1;align=center;" vertex="1" parent="1">
          <mxGeometry x="470" y="510" width="90" height="40" as="geometry" />
        </mxCell>
        <mxCell id="bm0z0x6JTXVxcFclUV1G-14" value="marca" style="shape=rhombus;perimeter=rhombusPerimeter;whiteSpace=wrap;html=1;align=center;" vertex="1" parent="1">
          <mxGeometry x="245" y="680" width="90" height="40" as="geometry" />
        </mxCell>
        <mxCell id="bm0z0x6JTXVxcFclUV1G-15" value="marca" style="shape=rhombus;perimeter=rhombusPerimeter;whiteSpace=wrap;html=1;align=center;" vertex="1" parent="1">
          <mxGeometry x="490" y="680" width="90" height="40" as="geometry" />
        </mxCell>
        <mxCell id="bm0z0x6JTXVxcFclUV1G-16" value="" style="endArrow=none;html=1;rounded=0;exitX=0;exitY=1;exitDx=0;exitDy=0;entryX=1;entryY=0;entryDx=0;entryDy=0;" edge="1" parent="1" source="GF9N1NEK_EVH8XBZDfcY-3" target="bm0z0x6JTXVxcFclUV1G-14">
          <mxGeometry relative="1" as="geometry">
            <mxPoint x="335" y="560" as="sourcePoint" />
            <mxPoint x="380" y="620" as="targetPoint" />
          </mxGeometry>
        </mxCell>
        <mxCell id="bm0z0x6JTXVxcFclUV1G-17" value="" style="endArrow=none;html=1;rounded=0;exitX=1;exitY=0.5;exitDx=0;exitDy=0;entryX=0;entryY=1;entryDx=0;entryDy=0;" edge="1" parent="1" source="E68iJSFj84GTbNLbcEv8-4" target="bm0z0x6JTXVxcFclUV1G-14">
          <mxGeometry relative="1" as="geometry">
            <mxPoint x="380" y="640" as="sourcePoint" />
            <mxPoint x="323" y="700" as="targetPoint" />
          </mxGeometry>
        </mxCell>
        <mxCell id="bm0z0x6JTXVxcFclUV1G-18" value="" style="endArrow=none;html=1;rounded=0;exitX=1;exitY=1;exitDx=0;exitDy=0;entryX=0;entryY=0;entryDx=0;entryDy=0;" edge="1" parent="1" source="GF9N1NEK_EVH8XBZDfcY-3" target="bm0z0x6JTXVxcFclUV1G-15">
          <mxGeometry relative="1" as="geometry">
            <mxPoint x="380" y="640" as="sourcePoint" />
            <mxPoint x="550" y="650" as="targetPoint" />
          </mxGeometry>
        </mxCell>
        <mxCell id="bm0z0x6JTXVxcFclUV1G-19" value="" style="endArrow=none;html=1;rounded=0;entryX=1;entryY=1;entryDx=0;entryDy=0;exitX=0;exitY=0.5;exitDx=0;exitDy=0;" edge="1" parent="1" source="E68iJSFj84GTbNLbcEv8-2" target="bm0z0x6JTXVxcFclUV1G-15">
          <mxGeometry relative="1" as="geometry">
            <mxPoint x="600" y="770" as="sourcePoint" />
            <mxPoint x="545" y="690" as="targetPoint" />
          </mxGeometry>
        </mxCell>
        <mxCell id="bm0z0x6JTXVxcFclUV1G-20" value="" style="endArrow=none;html=1;rounded=0;exitX=0.5;exitY=1;exitDx=0;exitDy=0;entryX=1;entryY=0;entryDx=0;entryDy=0;" edge="1" parent="1" source="bm0z0x6JTXVxcFclUV1G-13" target="GF9N1NEK_EVH8XBZDfcY-3">
          <mxGeometry relative="1" as="geometry">
            <mxPoint x="335" y="560" as="sourcePoint" />
            <mxPoint x="380" y="600" as="targetPoint" />
          </mxGeometry>
        </mxCell>
        <mxCell id="bm0z0x6JTXVxcFclUV1G-21" value="" style="endArrow=none;html=1;rounded=0;entryX=0.5;entryY=0;entryDx=0;entryDy=0;exitX=0.5;exitY=1;exitDx=0;exitDy=0;" edge="1" parent="1" source="E68iJSFj84GTbNLbcEv8-3" target="bm0z0x6JTXVxcFclUV1G-13">
          <mxGeometry relative="1" as="geometry">
            <mxPoint x="560" y="490" as="sourcePoint" />
            <mxPoint x="480" y="600" as="targetPoint" />
          </mxGeometry>
        </mxCell>
        <mxCell id="bm0z0x6JTXVxcFclUV1G-22" value="incluye" style="shape=rhombus;perimeter=rhombusPerimeter;whiteSpace=wrap;html=1;align=center;" vertex="1" parent="1">
          <mxGeometry x="245" y="820" width="90" height="40" as="geometry" />
        </mxCell>
        <mxCell id="bm0z0x6JTXVxcFclUV1G-23" value="incluye" style="shape=rhombus;perimeter=rhombusPerimeter;whiteSpace=wrap;html=1;align=center;" vertex="1" parent="1">
          <mxGeometry x="490" y="820" width="90" height="40" as="geometry" />
        </mxCell>
        <mxCell id="bm0z0x6JTXVxcFclUV1G-24" value="" style="endArrow=none;html=1;rounded=0;entryX=1;entryY=0.5;entryDx=0;entryDy=0;exitX=0;exitY=0.5;exitDx=0;exitDy=0;" edge="1" parent="1" source="E68iJSFj84GTbNLbcEv8-2" target="bm0z0x6JTXVxcFclUV1G-23">
          <mxGeometry relative="1" as="geometry">
            <mxPoint x="620" y="770" as="sourcePoint" />
            <mxPoint x="568" y="720" as="targetPoint" />
          </mxGeometry>
        </mxCell>
        <mxCell id="bm0z0x6JTXVxcFclUV1G-25" value="" style="endArrow=none;html=1;rounded=0;entryX=1;entryY=0.5;entryDx=0;entryDy=0;exitX=0;exitY=0.5;exitDx=0;exitDy=0;" edge="1" parent="1" source="bm0z0x6JTXVxcFclUV1G-23" target="E68iJSFj84GTbNLbcEv8-1">
          <mxGeometry relative="1" as="geometry">
            <mxPoint x="620" y="770" as="sourcePoint" />
            <mxPoint x="590" y="850" as="targetPoint" />
          </mxGeometry>
        </mxCell>
        <mxCell id="bm0z0x6JTXVxcFclUV1G-26" value="" style="endArrow=none;html=1;rounded=0;entryX=0;entryY=0.5;entryDx=0;entryDy=0;exitX=1;exitY=0.5;exitDx=0;exitDy=0;" edge="1" parent="1" source="bm0z0x6JTXVxcFclUV1G-22" target="E68iJSFj84GTbNLbcEv8-1">
          <mxGeometry relative="1" as="geometry">
            <mxPoint x="500" y="850" as="sourcePoint" />
            <mxPoint x="474" y="950" as="targetPoint" />
          </mxGeometry>
        </mxCell>
        <mxCell id="bm0z0x6JTXVxcFclUV1G-27" value="" style="endArrow=none;html=1;rounded=0;entryX=0;entryY=0.5;entryDx=0;entryDy=0;exitX=1;exitY=0.5;exitDx=0;exitDy=0;" edge="1" parent="1" source="E68iJSFj84GTbNLbcEv8-4" target="bm0z0x6JTXVxcFclUV1G-22">
          <mxGeometry relative="1" as="geometry">
            <mxPoint x="345" y="850" as="sourcePoint" />
            <mxPoint x="374" y="950" as="targetPoint" />
          </mxGeometry>
        </mxCell>
        <mxCell id="bm0z0x6JTXVxcFclUV1G-28" value="&lt;span style=&quot;font-weight: normal;&quot;&gt;realiza&lt;/span&gt;" style="shape=rhombus;perimeter=rhombusPerimeter;whiteSpace=wrap;html=1;align=center;fontStyle=1" vertex="1" parent="1">
          <mxGeometry x="100" y="310" width="90" height="40" as="geometry" />
        </mxCell>
        <mxCell id="bm0z0x6JTXVxcFclUV1G-29" value="&lt;span style=&quot;font-weight: normal;&quot;&gt;utiliza&lt;/span&gt;" style="shape=rhombus;perimeter=rhombusPerimeter;whiteSpace=wrap;html=1;align=center;fontStyle=1" vertex="1" parent="1">
          <mxGeometry x="364" y="310" width="90" height="40" as="geometry" />
        </mxCell>
        <mxCell id="bm0z0x6JTXVxcFclUV1G-30" value="" style="endArrow=none;html=1;rounded=0;exitX=0.5;exitY=1;exitDx=0;exitDy=0;entryX=0.5;entryY=0;entryDx=0;entryDy=0;" edge="1" parent="1" source="bm0z0x6JTXVxcFclUV1G-29" target="E68iJSFj84GTbNLbcEv8-5">
          <mxGeometry relative="1" as="geometry">
            <mxPoint x="300" y="460" as="sourcePoint" />
            <mxPoint x="335" y="520" as="targetPoint" />
          </mxGeometry>
        </mxCell>
        <mxCell id="bm0z0x6JTXVxcFclUV1G-31" value="" style="endArrow=none;html=1;rounded=0;exitX=0.5;exitY=1;exitDx=0;exitDy=0;entryX=0.5;entryY=0;entryDx=0;entryDy=0;" edge="1" parent="1" source="bm0z0x6JTXVxcFclUV1G-28" target="E68iJSFj84GTbNLbcEv8-5">
          <mxGeometry relative="1" as="geometry">
            <mxPoint x="365" y="360" as="sourcePoint" />
            <mxPoint x="280" y="380" as="targetPoint" />
          </mxGeometry>
        </mxCell>
        <mxCell id="bm0z0x6JTXVxcFclUV1G-32" value="" style="endArrow=none;html=1;rounded=0;exitX=0.5;exitY=1;exitDx=0;exitDy=0;entryX=0.5;entryY=0;entryDx=0;entryDy=0;" edge="1" parent="1" source="GF9N1NEK_EVH8XBZDfcY-2" target="bm0z0x6JTXVxcFclUV1G-28">
          <mxGeometry relative="1" as="geometry">
            <mxPoint x="155" y="360" as="sourcePoint" />
            <mxPoint x="300" y="420" as="targetPoint" />
          </mxGeometry>
        </mxCell>
        <mxCell id="bm0z0x6JTXVxcFclUV1G-33" value="" style="endArrow=none;html=1;rounded=0;exitX=0.5;exitY=1;exitDx=0;exitDy=0;entryX=0.5;entryY=0;entryDx=0;entryDy=0;" edge="1" parent="1" source="E68iJSFj84GTbNLbcEv8-9" target="bm0z0x6JTXVxcFclUV1G-29">
          <mxGeometry relative="1" as="geometry">
            <mxPoint x="140" y="260" as="sourcePoint" />
            <mxPoint x="155" y="320" as="targetPoint" />
          </mxGeometry>
        </mxCell>
        <mxCell id="bm0z0x6JTXVxcFclUV1G-34" value="pertenece" style="shape=rhombus;perimeter=rhombusPerimeter;whiteSpace=wrap;html=1;align=center;" vertex="1" parent="1">
          <mxGeometry x="615" y="580" width="90" height="40" as="geometry" />
        </mxCell>
        <mxCell id="bm0z0x6JTXVxcFclUV1G-35" value="" style="endArrow=none;html=1;rounded=0;entryX=0.5;entryY=0;entryDx=0;entryDy=0;exitX=0.5;exitY=1;exitDx=0;exitDy=0;" edge="1" parent="1" source="E68iJSFj84GTbNLbcEv8-3" target="bm0z0x6JTXVxcFclUV1G-34">
          <mxGeometry relative="1" as="geometry">
            <mxPoint x="560" y="460" as="sourcePoint" />
            <mxPoint x="525" y="520" as="targetPoint" />
          </mxGeometry>
        </mxCell>
        <mxCell id="bm0z0x6JTXVxcFclUV1G-36" value="" style="endArrow=none;html=1;rounded=0;entryX=0.5;entryY=1;entryDx=0;entryDy=0;exitX=0.5;exitY=0;exitDx=0;exitDy=0;" edge="1" parent="1" source="E68iJSFj84GTbNLbcEv8-2" target="bm0z0x6JTXVxcFclUV1G-34">
          <mxGeometry relative="1" as="geometry">
            <mxPoint x="560" y="460" as="sourcePoint" />
            <mxPoint x="675" y="570" as="targetPoint" />
          </mxGeometry>
        </mxCell>
        <mxCell id="bm0z0x6JTXVxcFclUV1G-37" value="aparece" style="shape=rhombus;perimeter=rhombusPerimeter;whiteSpace=wrap;html=1;align=center;" vertex="1" parent="1">
          <mxGeometry x="370" y="740" width="90" height="40" as="geometry" />
        </mxCell>
        <mxCell id="bm0z0x6JTXVxcFclUV1G-38" value="" style="endArrow=none;html=1;rounded=0;exitX=1;exitY=0.5;exitDx=0;exitDy=0;entryX=0;entryY=0.5;entryDx=0;entryDy=0;" edge="1" parent="1" source="E68iJSFj84GTbNLbcEv8-4" target="bm0z0x6JTXVxcFclUV1G-37">
          <mxGeometry relative="1" as="geometry">
            <mxPoint x="210" y="770" as="sourcePoint" />
            <mxPoint x="278" y="720" as="targetPoint" />
          </mxGeometry>
        </mxCell>
        <mxCell id="bm0z0x6JTXVxcFclUV1G-39" value="" style="endArrow=none;html=1;rounded=0;exitX=0;exitY=0.5;exitDx=0;exitDy=0;entryX=1;entryY=0.5;entryDx=0;entryDy=0;" edge="1" parent="1" source="E68iJSFj84GTbNLbcEv8-2" target="bm0z0x6JTXVxcFclUV1G-37">
          <mxGeometry relative="1" as="geometry">
            <mxPoint x="210" y="770" as="sourcePoint" />
            <mxPoint x="379" y="780" as="targetPoint" />
          </mxGeometry>
        </mxCell>
        <mxCell id="bm0z0x6JTXVxcFclUV1G-40" value="tiene" style="shape=rhombus;perimeter=rhombusPerimeter;whiteSpace=wrap;html=1;align=center;" vertex="1" parent="1">
          <mxGeometry x="615" y="830" width="90" height="40" as="geometry" />
        </mxCell>
        <mxCell id="bm0z0x6JTXVxcFclUV1G-41" value="" style="endArrow=none;html=1;rounded=0;entryX=0.5;entryY=1;entryDx=0;entryDy=0;exitX=0.5;exitY=0;exitDx=0;exitDy=0;" edge="1" parent="1" source="bm0z0x6JTXVxcFclUV1G-40" target="E68iJSFj84GTbNLbcEv8-2">
          <mxGeometry relative="1" as="geometry">
            <mxPoint x="670" y="750" as="sourcePoint" />
            <mxPoint x="670" y="630" as="targetPoint" />
          </mxGeometry>
        </mxCell>
        <mxCell id="bm0z0x6JTXVxcFclUV1G-42" value="" style="endArrow=none;html=1;rounded=0;entryX=0.5;entryY=0;entryDx=0;entryDy=0;exitX=0.5;exitY=1;exitDx=0;exitDy=0;" edge="1" parent="1" source="bm0z0x6JTXVxcFclUV1G-40" target="GF9N1NEK_EVH8XBZDfcY-1">
          <mxGeometry relative="1" as="geometry">
            <mxPoint x="665" y="850" as="sourcePoint" />
            <mxPoint x="670" y="790" as="targetPoint" />
          </mxGeometry>
        </mxCell>
        <mxCell id="bm0z0x6JTXVxcFclUV1G-43" value="1" style="text;html=1;align=center;verticalAlign=middle;resizable=0;points=[];autosize=1;strokeColor=none;fillColor=none;" vertex="1" parent="1">
          <mxGeometry x="310" y="360" width="30" height="30" as="geometry" />
        </mxCell>
        <mxCell id="bm0z0x6JTXVxcFclUV1G-44" value="1" style="text;html=1;align=center;verticalAlign=middle;resizable=0;points=[];autosize=1;strokeColor=none;fillColor=none;" vertex="1" parent="1">
          <mxGeometry x="405" y="248" width="30" height="30" as="geometry" />
        </mxCell>
        <mxCell id="bm0z0x6JTXVxcFclUV1G-45" value="1" style="text;html=1;align=center;verticalAlign=middle;resizable=0;points=[];autosize=1;strokeColor=none;fillColor=none;" vertex="1" parent="1">
          <mxGeometry x="225" y="360" width="30" height="30" as="geometry" />
        </mxCell>
        <mxCell id="bm0z0x6JTXVxcFclUV1G-46" value="N" style="text;html=1;align=center;verticalAlign=middle;resizable=0;points=[];autosize=1;strokeColor=none;fillColor=none;" vertex="1" parent="1">
          <mxGeometry x="145" y="248" width="30" height="30" as="geometry" />
        </mxCell>
        <mxCell id="bm0z0x6JTXVxcFclUV1G-47" value="1" style="text;html=1;align=center;verticalAlign=middle;resizable=0;points=[];autosize=1;strokeColor=none;fillColor=none;" vertex="1" parent="1">
          <mxGeometry x="305" y="448" width="30" height="30" as="geometry" />
        </mxCell>
        <mxCell id="bm0z0x6JTXVxcFclUV1G-48" value="N" style="text;html=1;align=center;verticalAlign=middle;resizable=0;points=[];autosize=1;strokeColor=none;fillColor=none;" vertex="1" parent="1">
          <mxGeometry x="350" y="554.5" width="30" height="30" as="geometry" />
        </mxCell>
        <mxCell id="bm0z0x6JTXVxcFclUV1G-49" value="N" style="text;html=1;align=center;verticalAlign=middle;resizable=0;points=[];autosize=1;strokeColor=none;fillColor=none;" vertex="1" parent="1">
          <mxGeometry x="325" y="628" width="30" height="30" as="geometry" />
        </mxCell>
        <mxCell id="bm0z0x6JTXVxcFclUV1G-50" value="N" style="text;html=1;align=center;verticalAlign=middle;resizable=0;points=[];autosize=1;strokeColor=none;fillColor=none;" vertex="1" parent="1">
          <mxGeometry x="480" y="628" width="30" height="30" as="geometry" />
        </mxCell>
        <mxCell id="bm0z0x6JTXVxcFclUV1G-51" value="N" style="text;html=1;align=center;verticalAlign=middle;resizable=0;points=[];autosize=1;strokeColor=none;fillColor=none;" vertex="1" parent="1">
          <mxGeometry x="454" y="555" width="30" height="30" as="geometry" />
        </mxCell>
        <mxCell id="bm0z0x6JTXVxcFclUV1G-52" value="M" style="text;html=1;align=center;verticalAlign=middle;resizable=0;points=[];autosize=1;strokeColor=none;fillColor=none;" vertex="1" parent="1">
          <mxGeometry x="515" y="448" width="30" height="30" as="geometry" />
        </mxCell>
        <mxCell id="bm0z0x6JTXVxcFclUV1G-53" value="M" style="text;html=1;align=center;verticalAlign=middle;resizable=0;points=[];autosize=1;strokeColor=none;fillColor=none;" vertex="1" parent="1">
          <mxGeometry x="585" y="718" width="30" height="30" as="geometry" />
        </mxCell>
        <mxCell id="bm0z0x6JTXVxcFclUV1G-54" value="M" style="text;html=1;align=center;verticalAlign=middle;resizable=0;points=[];autosize=1;strokeColor=none;fillColor=none;" vertex="1" parent="1">
          <mxGeometry x="195" y="708" width="30" height="30" as="geometry" />
        </mxCell>
        <mxCell id="bm0z0x6JTXVxcFclUV1G-55" value="N" style="text;html=1;align=center;verticalAlign=middle;resizable=0;points=[];autosize=1;strokeColor=none;fillColor=none;" vertex="1" parent="1">
          <mxGeometry x="225" y="738" width="30" height="30" as="geometry" />
        </mxCell>
        <mxCell id="bm0z0x6JTXVxcFclUV1G-56" value="M" style="text;html=1;align=center;verticalAlign=middle;resizable=0;points=[];autosize=1;strokeColor=none;fillColor=none;" vertex="1" parent="1">
          <mxGeometry x="555" y="738" width="30" height="30" as="geometry" />
        </mxCell>
        <mxCell id="bm0z0x6JTXVxcFclUV1G-57" value="N" style="text;html=1;align=center;verticalAlign=middle;resizable=0;points=[];autosize=1;strokeColor=none;fillColor=none;" vertex="1" parent="1">
          <mxGeometry x="210" y="768" width="30" height="30" as="geometry" />
        </mxCell>
        <mxCell id="bm0z0x6JTXVxcFclUV1G-58" value="M" style="text;html=1;align=center;verticalAlign=middle;resizable=0;points=[];autosize=1;strokeColor=none;fillColor=none;" vertex="1" parent="1">
          <mxGeometry x="355" y="888" width="30" height="30" as="geometry" />
        </mxCell>
        <mxCell id="bm0z0x6JTXVxcFclUV1G-59" value="N" style="text;html=1;align=center;verticalAlign=middle;resizable=0;points=[];autosize=1;strokeColor=none;fillColor=none;" vertex="1" parent="1">
          <mxGeometry x="445" y="888" width="30" height="30" as="geometry" />
        </mxCell>
        <mxCell id="bm0z0x6JTXVxcFclUV1G-60" value="M" style="text;html=1;align=center;verticalAlign=middle;resizable=0;points=[];autosize=1;strokeColor=none;fillColor=none;" vertex="1" parent="1">
          <mxGeometry x="565" y="768" width="30" height="30" as="geometry" />
        </mxCell>
        <mxCell id="bm0z0x6JTXVxcFclUV1G-61" value="N" style="text;html=1;align=center;verticalAlign=middle;resizable=0;points=[];autosize=1;strokeColor=none;fillColor=none;" vertex="1" parent="1">
          <mxGeometry x="635" y="778" width="30" height="30" as="geometry" />
        </mxCell>
        <mxCell id="bm0z0x6JTXVxcFclUV1G-62" value="M" style="text;html=1;align=center;verticalAlign=middle;resizable=0;points=[];autosize=1;strokeColor=none;fillColor=none;" vertex="1" parent="1">
          <mxGeometry x="625" y="888" width="30" height="30" as="geometry" />
        </mxCell>
        <mxCell id="bm0z0x6JTXVxcFclUV1G-63" value="1" style="text;html=1;align=center;verticalAlign=middle;resizable=0;points=[];autosize=1;strokeColor=none;fillColor=none;" vertex="1" parent="1">
          <mxGeometry x="655" y="708" width="30" height="30" as="geometry" />
        </mxCell>
        <mxCell id="bm0z0x6JTXVxcFclUV1G-64" value="N" style="text;html=1;align=center;verticalAlign=middle;resizable=0;points=[];autosize=1;strokeColor=none;fillColor=none;" vertex="1" parent="1">
          <mxGeometry x="575" y="458" width="30" height="30" as="geometry" />
        </mxCell>
      </root>
    </mxGraphModel>
  </diagram>
</mxfile>
